<?xml version="1.0" standalone="no"?><!DOCTYPE svg PUBLIC "-//W3C//DTD SVG 1.1//EN" "http://www.w3.org/Graphics/SVG/1.1/DTD/svg11.dtd"><svg t="1742365290410" class="icon" viewBox="0 0 1024 1024" version="1.1" xmlns="http://www.w3.org/2000/svg" p-id="6257" xmlns:xlink="http://www.w3.org/1999/xlink" width="200" height="200"><path d="M512 38.4C251.733333 38.4 38.4 251.733333 38.4 512s213.333333 473.6 473.6 473.6 473.6-213.333333 473.6-473.6S772.266667 38.4 512 38.4z m0 874.666667C290.133333 913.066667 110.933333 733.866667 110.933333 512S290.133333 110.933333 512 110.933333 913.066667 290.133333 913.066667 512 733.866667 913.066667 512 913.066667z" fill="#202020" p-id="6258"></path><path d="M460.8 298.666667c-17.066667-12.8-38.4-8.533333-51.2 8.533333-4.266667 6.4-6.4 12.8-6.4 21.333333v386.133334c0 19.2 17.066667 36.266667 36.266667 36.266666 8.533333 0 14.933333-2.133333 21.333333-6.4l266.666667-194.133333c17.066667-12.8 19.2-34.133333 8.533333-51.2-2.133333-2.133333-4.266667-6.4-8.533333-8.533333 0 2.133333-266.666667-192-266.666667-192z" fill="#202020" p-id="6259"></path></svg>