<?xml version="1.0" standalone="no"?><!DOCTYPE svg PUBLIC "-//W3C//DTD SVG 1.1//EN" "http://www.w3.org/Graphics/SVG/1.1/DTD/svg11.dtd"><svg t="1742185392998" class="icon" viewBox="0 0 1024 1024" version="1.1" xmlns="http://www.w3.org/2000/svg" p-id="61516" xmlns:xlink="http://www.w3.org/1999/xlink" width="200" height="200"><path d="M2.27555555 71.96444445A18.20444445 18.20444445 0 0 1 20.48 53.76h360.08391111c18.93262222 0 35.68071111 12.37902222 41.28768 30.94755556l14.56355556 48.49664h567.10485333a18.20444445 18.20444445 0 0 1 18.20444445 18.20444444v732.98375112c0 24.10268445-19.51516445 43.18094222-42.9624889 43.18094222H45.23804445c-24.02986667 0-42.96248889-19.6608-42.9624889-43.18094222V71.96444445z" fill="#2C5CAB" p-id="61517"></path><path d="M892.47288889 895.96814222H131.52711111a42.81685333 42.81685333 0 0 1-43.18094222-42.37994667V276.36167111c0-23.66577778 19.58798222-42.37994667 43.10812444-42.37994666h761.01859556c24.10268445 0 43.18094222 19.22389333 43.18094222 42.37994666v577.22652444a42.45276445 42.45276445 0 0 1-43.18094222 42.37994667" fill="#FFFFFF" p-id="61518"></path><path d="M2.27555555 930.70222222V331.63036445a18.20444445 18.20444445 0 0 1 18.20444445-18.20444445h983.04a18.20444445 18.20444445 0 0 1 18.20444445 18.20444445v599.07185777a18.20444445 18.20444445 0 0 1-18.20444445 18.20444445H20.48a18.20444445 18.20444445 0 0 1-18.20444445-18.20444445" fill="#4686F2" p-id="61519"></path><path d="M649.98968889 803.27111111h48.78791111v-48.93354666h-48.78791111V803.27111111zM458.04202667 507.92220445H565.88515555v-48.78791112H458.11484445v48.78791112zM325.14958222 803.27111111h48.86072889v-48.93354666h-48.86072889V803.27111111z m162.38364445 0h48.93354666v-48.93354666h-48.93354666V803.27111111z m238.55104-88.61923556h-31.82136889v-105.58577777a12.45184 12.45184 0 0 0-12.45184-12.52465778H532.02488889V547.68071111h61.31256889a12.45184 12.45184 0 0 0 12.45184-12.52465778V431.90044445a12.45184 12.45184 0 0 0-12.37902223-12.45184H430.88099555a12.45184 12.45184 0 0 0-12.45184 12.45184v103.40124444c0 6.84487111 5.60696889 12.37902222 12.37902223 12.37902222h61.45820444v48.93354667H342.18894222a12.45184 12.45184 0 0 0-12.37902222 12.45184v105.65859555H297.91573333a12.45184 12.45184 0 0 0-12.45184 12.45184v103.40124445c0 6.84487111 5.60696889 12.37902222 12.45184 12.37902222h103.40124445a12.45184 12.45184 0 0 0 12.37902222-12.37902222v-103.40124445a12.45184 12.45184 0 0 0-12.37902222-12.37902222h-31.89418667V636.15431111H492.3392v78.42474667h-32.03982222a12.45184 12.45184 0 0 0-12.37902223 12.45184v103.40124444c0 6.84487111 5.53415111 12.37902222 12.37902223 12.37902223h103.40124444a12.45184 12.45184 0 0 0 12.37902223-12.37902223v-103.40124444a12.45184 12.45184 0 0 0-12.37902223-12.37902223h-31.67573333V636.15431111h122.55232v78.42474667H622.68302222a12.45184 12.45184 0 0 0-12.45184 12.45184v103.40124444c0 6.84487111 5.53415111 12.37902222 12.37902223 12.37902223h103.40124444a12.45184 12.45184 0 0 0 12.45184-12.37902223v-103.40124444a12.45184 12.45184 0 0 0-12.45184-12.37902223z" fill="#FFFFFF" p-id="61520"></path></svg>