<?xml version="1.0" standalone="no"?><!DOCTYPE svg PUBLIC "-//W3C//DTD SVG 1.1//EN" "http://www.w3.org/Graphics/SVG/1.1/DTD/svg11.dtd"><svg t="1742368684772" class="icon" viewBox="0 0 1024 1024" version="1.1" xmlns="http://www.w3.org/2000/svg" p-id="12795" xmlns:xlink="http://www.w3.org/1999/xlink" width="200" height="200"><path fill="#CCCCCC" d="M993.394 58.937H30.606c-15.587 0-28.33 12.63-28.33 28.33v849.58c0 15.587 12.629 28.33 28.33 28.33h590.62a281.891 281.891 0 0 1-43.007-56.661H87.268c-15.588 0-28.331-12.63-28.331-28.331V313.799c0-15.587 12.63-28.33 28.33-28.33h849.58c15.587 0 28.33 12.629 28.33 28.33v207.872a281.891 281.891 0 0 1 56.661 43.008V87.268c-0.114-15.702-12.743-28.331-28.444-28.331z m-877.796 169.87c-31.289 0-56.661-25.372-56.661-56.661 0-31.29 25.372-56.662 56.661-56.662 31.29 0 56.662 25.373 56.662 56.662-0.114 31.289-25.487 56.661-56.662 56.661z m169.87 0c-31.288 0-56.66-25.372-56.66-56.661 0-31.29 25.372-56.662 56.66-56.662 31.29 0 56.662 25.373 56.662 56.662 0 31.289-25.373 56.661-56.662 56.661z m169.87 0c-31.288 0-56.66-25.372-56.66-56.661 0-31.29 25.372-56.662 56.66-56.662 31.29 0 56.662 25.373 56.662 56.662 0 31.289-25.372 56.661-56.661 56.661z" p-id="12796"></path><path d="M547.726 702.464a296.783 296.783 0 0 1 9.216-31.175 265.402 265.402 0 0 1 12.743-29.924 276.705 276.705 0 0 1 16.043-28.217c5.916-9.102 12.288-17.863 19.228-26.168 6.94-8.42 14.223-16.27 22.073-23.894 7.851-7.51 16.043-14.563 24.69-21.162l-44.828-44.26c-9.785-9.671-9.785-25.372 0-35.044s25.713-9.67 35.498 0l52.566 51.997c9.898-5.12 20.138-9.557 30.606-13.426 10.467-3.868 21.049-7.054 31.971-9.671 10.81-2.617 21.732-4.551 32.882-5.916 11.037-1.366 22.187-1.935 33.337-1.935 29.013 0 57.344 4.324 84.992 13.085V370.46c0-15.587-12.63-28.33-28.33-28.33H143.814c-15.587 0-28.33 12.63-28.33 28.33v453.064c0 15.587 12.629 28.33 28.33 28.33h409.486c-8.647-27.648-13.084-55.978-13.084-84.992 0-10.809 0.569-21.618 1.82-32.426 1.366-10.81 3.186-21.504 5.69-31.972z m-130.162 27.307c-4.892 4.778-11.264 7.281-17.749 7.281-6.485 0-12.857-2.389-17.75-7.281L264.42 613.49c-9.785-9.671-9.785-25.373 0-35.044L381.724 462.62c9.785-9.67 25.714-9.67 35.5 0 9.784 9.672 9.784 25.373 0 35.044l-99.556 98.418 99.896 98.759c9.9 9.557 9.785 25.259 0 34.93z m78.052-7.737c-3.64 10.126-13.312 16.498-23.666 16.498-2.73 0-5.575-0.456-8.306-1.48-13.084-4.55-19.91-18.66-15.246-31.63l83.172-232.106c4.665-12.857 19-19.684 31.971-15.133 13.085 4.551 19.911 18.66 15.247 31.63l-83.172 232.22z" p-id="12797" fill="#CCCCCC"></path><path d="M991.004 698.254c-25.144 0.228-43.804-24.576-38.115-50.517 7.168-34.361 5.461-39.253-24.917-57.117l-19.456-11.377c-17.408-15.36-43.122-13.085-57.913 5.12-22.3 18.545-32.313 18.204-53.703 0-14.564-18.432-40.392-21.05-57.913-5.803l-32.313 18.887c-14.564 7.054-21.504 24.917-15.815 40.96 10.012 34.361-4.551 56.434-39.481 60.189-14.564 1.706-24.235 10.012-24.918 23.78a694.988 694.988 0 0 0 0 81.464c0 17.522 11.037 26.51 29.128 28.217 24.803-0.228 43.69 23.552 39.48 49.493-6.485 36.068-6.485 39.936 25.828 58.482 6.827 4.096 13.54 8.647 20.708 12.402 16.611 12.06 38.912 8.874 52.11-7.168 24.917-22.642 32.313-22.3 58.595 0 10.354 7.282 21.163 13.994 32.313 19.91 23.666-15.814 46.877-29.581 67.926-46.08 4.892-8.077 6.03-18.09 2.958-27.192-11.947-30.948 7.168-58.14 40.732-61.554 13.881 0 23.325-9.33 23.894-22.3a790.589 790.589 0 0 0 1.024-80.441c-0.114-18.432-11.378-27.648-30.152-29.355zM822.841 847.076c-43.008 0-77.938-37.092-77.938-82.83 0-45.74 34.93-82.83 77.938-82.83s77.938 37.09 77.938 82.83c0.113 45.852-34.816 83.057-77.938 82.83z" p-id="12798" fill="#CCCCCC"></path></svg>